<svg width="163" height="71" viewBox="0 0 163 71" fill="none" xmlns="http://www.w3.org/2000/svg">
<path d="M47.4194 33.0826L45.2988 44.2066C45.2172 44.787 44.6463 45.2706 44.0754 45.2706H41.4654C41.4654 45.2706 41.1391 45.4641 41.0576 45.6576C38.6923 55.2339 35.4298 61.9082 31.1885 65.8742C27.5182 69.2597 23.0323 70.8074 17.0782 70.8074C11.6951 70.8074 8.10635 68.7761 5.00698 64.7134C0.928858 59.3932 -0.702391 50.5908 0.276358 40.0472C2.07073 20.2175 10.7979 0.194336 27.5182 0.194336C32.5751 0.194336 36.5716 2.03222 39.3447 5.70797C42.281 9.67391 43.7491 15.5744 43.7491 23.3129C43.7491 23.99 43.2597 24.5704 42.6888 24.5704H30.4544C30.0466 24.5704 29.6388 24.0867 29.6388 23.6031C29.5573 18.2829 28.1707 15.6712 25.5607 15.6712C20.8301 15.6712 18.1385 23.2161 16.6704 27.3755C14.6313 33.1794 13.571 39.5635 13.8157 45.9477C13.8973 48.8497 14.3051 53.0091 16.6704 54.7502C18.791 56.2979 21.7273 55.2338 23.5216 53.5894C25.316 51.945 26.7841 48.9464 27.3551 46.3347C27.4366 45.9477 27.4366 45.6576 27.3551 45.5608C27.2735 45.4641 27.0288 45.3674 26.8657 45.3674H23.6848C23.6848 45.3674 23.0323 45.1739 22.7876 44.8837C22.6245 44.6902 22.5429 44.3033 22.6245 44.0131L24.7451 32.9859C24.8266 32.4055 25.316 32.0186 25.8054 31.9219H46.4407C46.4407 31.9219 46.5222 31.9219 46.6038 31.9219C47.1747 31.9219 47.501 32.599 47.501 33.2761L47.4194 33.0826Z" fill="#FF0040"/>
<path d="M82.8987 20.4101C82.8987 21.0872 82.4093 21.6676 81.8384 21.6676H70.5828C69.8487 21.6676 69.1962 20.9905 69.1962 20.1199C69.1962 16.2507 68.0544 14.3161 65.7706 14.3161C63.4869 14.3161 61.9372 16.0572 61.9372 18.9591C61.9372 22.248 63.4869 25.2466 67.9728 30.3733C73.8453 36.9509 76.2106 42.7548 76.129 50.4932C75.9659 62.9714 68.7884 71 57.9406 71C52.3944 71 48.1531 69.2589 45.38 65.7766C42.5253 62.2943 41.2203 57.0708 41.465 50.3965C41.465 49.7193 41.9544 49.139 42.5253 49.139H54.1887C54.1887 49.139 54.8412 49.3324 55.0044 49.6226C55.1675 49.9128 55.2491 50.203 55.2491 50.4932C55.0859 52.9114 55.4937 54.6526 56.3094 55.7166C56.7987 56.3937 57.5328 56.6839 58.43 56.6839C60.5506 56.6839 61.8556 54.846 61.8556 51.7507C61.8556 49.0422 61.2031 46.624 57.2066 41.7875C52.0681 35.8869 47.5006 29.7929 47.6638 20.2166C47.7453 14.6063 49.6213 9.57629 52.8837 5.90054C56.3909 2.03133 61.1215 0 66.6678 0C72.214 0 76.4553 1.9346 79.1468 5.61035C81.7568 9.09264 82.9803 14.1226 82.8987 20.5068V20.4101Z" fill="#FF0040"/>
<path d="M117.89 68.5821V2.41863C117.971 1.74152 117.482 1.16113 116.911 1.16113H99.4566C98.8857 1.16113 98.641 1.74152 98.4779 2.12844L73.1935 68.0985C72.9488 68.8723 73.4382 69.7429 74.1723 69.7429H86.4066C87.0591 69.7429 87.467 69.5494 87.7116 68.969L90.1585 62.1012C90.4848 61.2306 90.4848 61.1339 91.382 61.1339H103.045C103.861 61.1339 103.861 61.1339 103.861 62.1012L103.616 68.4854C103.616 69.1625 104.106 69.7429 104.677 69.7429H116.993C116.993 69.7429 117.563 69.5494 117.808 69.356C117.971 69.1625 118.053 68.7756 118.053 68.4854L117.89 68.5821ZM96.2757 46.5276C96.2757 46.5276 96.1126 46.5276 96.031 46.5276C95.8679 46.5276 95.7863 46.3342 95.7863 46.1407C95.7863 46.044 95.7863 45.9472 95.8679 45.7538L104.595 20.1203C104.595 20.1203 104.758 19.6366 104.84 19.3464C105.003 18.9595 105.166 18.9595 105.248 19.2497C105.248 19.4431 104.269 45.5603 104.269 45.5603C104.187 46.5276 104.187 46.6243 103.372 46.6243H96.3573V46.5276H96.2757Z" fill="#FF0040"/>
<path d="M142.685 1.16021H133.386C132.897 1.16021 132.326 1.4504 132.245 2.12752L119.358 68.4845C119.358 68.4845 119.358 69.0648 119.521 69.355C119.765 69.6452 120.092 69.8387 120.418 69.8387H132C132.652 69.8387 133.06 69.4518 133.142 68.8714L134.528 61.3264C134.61 60.746 134.528 60.2624 134.039 59.9722C133.794 59.8755 133.631 59.682 133.386 59.5853L131.347 58.3278L129.39 57.0703L128.656 56.5866C128.656 56.5866 128.411 56.3932 128.493 56.1997C128.493 55.9095 128.656 55.7161 128.9 55.7161H135.262C137.138 55.7161 139.096 55.6193 140.89 55.2324C154.022 52.3305 162.749 39.8523 162.994 22.9245C163.238 8.41498 156.387 1.06348 142.766 1.06348L142.685 1.16021ZM139.504 40.6261H139.259C138.688 40.6261 138.606 40.6261 138.606 40.6261L142.277 21.4736C142.358 20.8932 142.358 20.603 142.114 20.4095C141.706 20.2161 136.404 16.8305 136.404 16.8305C136.241 16.8305 136.16 16.637 136.241 16.4436C136.241 16.1534 136.404 15.9599 136.649 15.9599H145.131C147.741 15.9599 149.21 18.8618 149.128 23.6016C149.046 31.8237 145.702 40.4327 139.585 40.7229L139.504 40.6261Z" fill="#FF0040"/>
</svg>
