<svg width="27" height="24" viewBox="0 0 27 24" fill="none" xmlns="http://www.w3.org/2000/svg">
<path d="M5.625 22C5.00625 22 4.47656 21.8042 4.03594 21.4125C3.59531 21.0208 3.375 20.55 3.375 20V6C3.375 5.45 3.59531 4.97917 4.03594 4.5875C4.47656 4.19583 5.00625 4 5.625 4H6.75V2H9V4H18V2H20.25V4H21.375C21.9937 4 22.5234 4.19583 22.9641 4.5875C23.4047 4.97917 23.625 5.45 23.625 6V20C23.625 20.55 23.4047 21.0208 22.9641 21.4125C22.5234 21.8042 21.9937 22 21.375 22H5.625ZM5.625 20H21.375V10H5.625V20ZM5.625 8H21.375V6H5.625V8Z" fill="#FF00FF"/>
</svg>
